<svg xmlns="http://www.w3.org/2000/svg" viewBox="0 0 633.19 430.87"><defs><style>.cls-1,.cls-3{fill:#ff0075;}.cls-2{fill:#0b0025;}.cls-3{font-size:325.14px;}.cls-3,.cls-4{font-family:Montserrat-Bold, Montserrat;font-weight:700;}.cls-4{font-size:250px;fill:#0080ff;}</style></defs><title>logo-proto</title><g id="Layer_2" data-name="Layer 2"><g id="Layer_1-2" data-name="Layer 1"><path class="cls-1" d="M451.76,44.86h-96.2a14.72,14.72,0,0,0-14.72,14.73V261.24A14.73,14.73,0,0,0,355.56,276h96.2a14.73,14.73,0,0,0,14.73-14.73V59.59A14.72,14.72,0,0,0,451.76,44.86ZM462,255.38a14.74,14.74,0,0,1-14.73,14.73H360a14.74,14.74,0,0,1-14.73-14.73v-183A14.73,14.73,0,0,1,360,57.63h87.29A14.73,14.73,0,0,1,462,72.36Z"/><rect class="cls-2" x="345.29" y="57.63" width="116.74" height="212.48" rx="14.73"/><path class="cls-2" d="M394.31,51.19a.39.39,0,0,1,0-.78h14.85a.38.38,0,0,1,.39.39.39.39,0,0,1-.39.39Z"/><path d="M409.16,49.91H394.31a.89.89,0,1,0,0,1.78h14.85a.89.89,0,0,0,0-1.78Z"/><path class="cls-2" d="M413,51.19a.4.4,0,0,1-.39-.39.39.39,0,0,1,.39-.39.38.38,0,0,1,.39.39A.39.39,0,0,1,413,51.19Z"/><path d="M413,49.91a.89.89,0,1,0,.89.89.89.89,0,0,0-.89-.89Z"/><text class="cls-3" transform="translate(0 276.37) scale(0.91 1)">IN</text><text class="cls-4" transform="translate(70 364.37) scale(0.91 1)">SIDE</text></g></g></svg>