<svg xmlns="http://www.w3.org/2000/svg" viewBox="0 0 565.76 778"><defs><style>.cls-1,.cls-3{fill:#ff0075;}.cls-2{fill:#0b0025;}.cls-3,.cls-5{font-size:168.61px;font-family:Montserrat-Bold, Montserrat;font-weight:700;}.cls-4{letter-spacing:-0.01em;}.cls-5,.cls-6{fill:#0092ff;}</style></defs><title>Asset 1</title><g id="Layer_2" data-name="Layer 2"><g id="Layer_1-2" data-name="Layer 1"><rect class="cls-1" width="423" height="778" rx="27.54"/><rect class="cls-2" x="15" y="43" width="393" height="715.27" rx="27.54"/><path class="cls-2" d="M180,22.5a2.5,2.5,0,0,1,0-5h50a2.5,2.5,0,0,1,0,5Z"/><path d="M230,18a2,2,0,0,1,0,4H180a2,2,0,0,1,0-4h50m0-1H180a3,3,0,0,0,0,6h50a3,3,0,0,0,0-6Z"/><circle class="cls-2" cx="243" cy="20" r="2.5"/><path d="M243,18a2,2,0,1,1-2,2,2,2,0,0,1,2-2m0-1a3,3,0,1,0,3,3,3,3,0,0,0-3-3Z"/><text class="cls-3" transform="translate(222.82 334.31)">T<tspan class="cls-4" x="104.2" y="0">R</tspan><tspan x="226.43" y="0">Y</tspan><tspan x="0" y="202.33">IT</tspan></text><rect class="cls-1" x="93" y="215" width="91" height="119"/><rect class="cls-1" x="93" y="346" width="91" height="91"/><polygon class="cls-1" points="184 539 93 448 184 448 184 539"/><text class="cls-5" transform="translate(211.82 334.31)">T<tspan class="cls-4" x="104.2" y="0">R</tspan><tspan x="226.43" y="0">Y</tspan><tspan x="0" y="202.33">IT</tspan></text><rect class="cls-6" x="82" y="215" width="91" height="119"/><rect class="cls-6" x="82" y="346" width="91" height="91"/><polygon class="cls-6" points="173 539 82 448 173 448 173 539"/></g></g></svg>