<svg xmlns="http://www.w3.org/2000/svg" xmlns:xlink="http://www.w3.org/1999/xlink" viewBox="0 0 672.76 461.31"><defs><linearGradient id="linear-gradient" x1="268.94" y1="126.59" x2="417.77" y2="384.38" gradientUnits="userSpaceOnUse"><stop offset="0" stop-color="#fff" stop-opacity="0"/><stop offset="0.38" stop-color="#fefeff" stop-opacity="0.01"/><stop offset="0.52" stop-color="#fbfcfe" stop-opacity="0.04"/><stop offset="0.61" stop-color="#f6f9fd" stop-opacity="0.09"/><stop offset="0.69" stop-color="#eff4fb" stop-opacity="0.16"/><stop offset="0.76" stop-color="#e6edf9" stop-opacity="0.26"/><stop offset="0.82" stop-color="#dbe4f6" stop-opacity="0.37"/><stop offset="0.87" stop-color="#cddbf3" stop-opacity="0.51"/><stop offset="0.92" stop-color="#bdcfef" stop-opacity="0.68"/><stop offset="0.97" stop-color="#acc2eb" stop-opacity="0.85"/><stop offset="1" stop-color="#9eb8e8"/></linearGradient><linearGradient id="linear-gradient-2" x1="561.9" y1="61.51" x2="569.09" y2="73.95" gradientUnits="userSpaceOnUse"><stop offset="0" stop-color="#fff" stop-opacity="0"/><stop offset="0.1" stop-color="#fef9f8" stop-opacity="0.03"/><stop offset="0.24" stop-color="#fae9e6" stop-opacity="0.12"/><stop offset="0.41" stop-color="#f4cec7" stop-opacity="0.26"/><stop offset="0.6" stop-color="#eca89d" stop-opacity="0.46"/><stop offset="0.8" stop-color="#e27866" stop-opacity="0.71"/><stop offset="1" stop-color="#d64128"/></linearGradient><linearGradient id="linear-gradient-3" x1="434.08" y1="66.67" x2="441.27" y2="79.11" gradientUnits="userSpaceOnUse"><stop offset="0" stop-color="#fff" stop-opacity="0"/><stop offset="0.11" stop-color="#f6fcfb" stop-opacity="0.04"/><stop offset="0.27" stop-color="#ddf5f1" stop-opacity="0.14"/><stop offset="0.46" stop-color="#b5e8e1" stop-opacity="0.31"/><stop offset="0.67" stop-color="#7cd7c9" stop-opacity="0.54"/><stop offset="0.89" stop-color="#34c1ac" stop-opacity="0.84"/><stop offset="1" stop-color="#0db59c"/></linearGradient><linearGradient id="linear-gradient-4" x1="263.03" y1="250.34" x2="270.22" y2="262.79" gradientUnits="userSpaceOnUse"><stop offset="0" stop-color="#fff" stop-opacity="0"/><stop offset="0.1" stop-color="#fef9fa" stop-opacity="0.03"/><stop offset="0.24" stop-color="#fbe7ea" stop-opacity="0.11"/><stop offset="0.4" stop-color="#f7cad1" stop-opacity="0.25"/><stop offset="0.58" stop-color="#f0a1ae" stop-opacity="0.44"/><stop offset="0.78" stop-color="#e86d81" stop-opacity="0.69"/><stop offset="0.99" stop-color="#df2e4c" stop-opacity="0.98"/><stop offset="1" stop-color="#de2a48"/></linearGradient><linearGradient id="linear-gradient-5" x1="313.18" y1="298.56" x2="320.37" y2="311.01" xlink:href="#linear-gradient-2"/><linearGradient id="linear-gradient-6" x1="144.14" y1="217.24" x2="151.32" y2="229.69" gradientUnits="userSpaceOnUse"><stop offset="0" stop-color="#fff" stop-opacity="0"/><stop offset="0.11" stop-color="#f8fcfd" stop-opacity="0.04"/><stop offset="0.27" stop-color="#e3f2f6" stop-opacity="0.14"/><stop offset="0.45" stop-color="#c2e2ea" stop-opacity="0.3"/><stop offset="0.65" stop-color="#93ccdb" stop-opacity="0.53"/><stop offset="0.87" stop-color="#58b1c7" stop-opacity="0.81"/><stop offset="1" stop-color="#329fba"/></linearGradient><linearGradient id="linear-gradient-7" x1="414.84" y1="211.04" x2="422.15" y2="223.71" gradientUnits="userSpaceOnUse"><stop offset="0" stop-color="#fff" stop-opacity="0"/><stop offset="0.1" stop-color="#f9fdfe" stop-opacity="0.03"/><stop offset="0.24" stop-color="#e7f5fc" stop-opacity="0.11"/><stop offset="0.4" stop-color="#caeaf8" stop-opacity="0.25"/><stop offset="0.58" stop-color="#a1daf2" stop-opacity="0.44"/><stop offset="0.77" stop-color="#6dc5eb" stop-opacity="0.68"/><stop offset="0.98" stop-color="#2eade2" stop-opacity="0.97"/><stop offset="1" stop-color="#27aae1"/></linearGradient><linearGradient id="linear-gradient-8" x1="498.79" y1="131.62" x2="505.97" y2="144.06" xlink:href="#linear-gradient-2"/><linearGradient id="linear-gradient-9" x1="503.45" y1="219.12" x2="510.74" y2="231.76" xlink:href="#linear-gradient-3"/></defs><title>Phone art</title><g style="isolation:isolate"><g id="Layer_2" data-name="Layer 2"><g id="OBJECTS"><path d="M658.31,191.16,270.58,416.48c-19.36,11.25-50.86,11.25-70.34,0L14.78,309.41C5,303.75.08,296.32.1,288.89L0,325.28c0,7.42,4.87,14.86,14.68,20.52L200.14,452.87c19.48,11.25,51,11.25,70.33,0L658.21,227.55c9.62-5.59,14.43-12.91,14.45-20.23l.1-36.39C672.74,178.25,667.93,185.57,658.31,191.16Z" style="fill:#005d82"/><g style="isolation:isolate"><path d="M658.31,184.07,270.58,409.39c-19.36,11.25-50.86,11.25-70.34,0L14.78,302.32C5,296.66.08,289.23.1,281.81L0,318.2c0,7.42,4.87,14.85,14.68,20.51L200.14,445.78c19.48,11.25,51,11.25,70.33,0L658.21,220.46c9.62-5.59,14.43-12.91,14.45-20.23l.1-36.39C672.74,171.17,667.93,178.48,658.31,184.07Z" style="fill:#0591ce"/><path d="M658.08,143.33c19.48,11.24,19.6,29.48.23,40.74L270.58,409.39c-19.36,11.25-50.86,11.25-70.34,0L14.78,302.32c-19.48-11.25-19.58-29.49-.23-40.74L402.28,36.25c19.37-11.25,50.86-11.24,70.34,0Z" style="fill:#cc0267"/></g><path d="M647.22,144.73c18.59,10.74,18.7,28.14.22,38.88L271.66,402c-18.47,10.73-48.53,10.73-67.12,0L27.57,299.8C9,289.07,8.88,271.65,27.35,260.92L403.13,42.56c18.49-10.74,48.54-10.73,67.12,0Z" style="fill:#ff0075"/><path d="M658.31,184.07,270.58,409.39c-19.36,11.25-50.86,11.25-70.34,0L14.78,302.32C5,296.66.08,289.23.1,281.81L0,318.2c0,7.42,4.87,14.85,14.68,20.51L200.14,445.78c19.48,11.25,51,11.25,70.33,0L658.21,220.46c9.62-5.59,14.43-12.91,14.45-20.23l.1-36.39C672.74,171.17,667.93,178.48,658.31,184.07Z" style="mix-blend-mode:multiply;fill:url(#linear-gradient)"/><polygon points="634.81 184.89 292.24 383.6 58.64 248.73 401.22 50.02 634.81 184.89" style="fill:#415460"/><polygon points="634.81 184.89 614.56 196.63 380.87 61.82 401.22 50.02 634.81 184.89" style="fill:#2f3154"/><path d="M625.69,223.07a15.23,15.23,0,0,1-6.94,12L558.33,270c-2.83,1.63-5.27,1.11-6.38-1a6.37,6.37,0,0,1-.63-2.92,15.32,15.32,0,0,1,7-12.06l60.42-34.9a6.55,6.55,0,0,1,2.72-.92C623.93,217.92,625.69,219.75,625.69,223.07Z" style="fill:#3e6985"/><path d="M622.08,221.11a15.32,15.32,0,0,1-6.94,12L554.71,268a6.44,6.44,0,0,1-2.76.91,6.37,6.37,0,0,1-.63-2.92,15.32,15.32,0,0,1,7-12.06l60.42-34.9a6.55,6.55,0,0,1,2.72-.92A6.52,6.52,0,0,1,622.08,221.11Z" style="fill:#057ea8"/><path d="M562.7,119.18a3.4,3.4,0,0,1-1.22,1.1,8.26,8.26,0,0,1-7.53,0L512.56,96.39a3.64,3.64,0,0,1-1.23-1.11c-.71-1.09-.3-2.38,1.21-3.26a8.35,8.35,0,0,1,7.54,0l41.39,23.9C563,116.8,563.41,118.08,562.7,119.18Z" style="fill:#0591ce"/><path d="M562.7,119.18a3.4,3.4,0,0,1-1.22,1.1,8.26,8.26,0,0,1-7.53,0L512.56,96.39a3.64,3.64,0,0,1-1.23-1.11,3.29,3.29,0,0,1,1.21-1.11,8.28,8.28,0,0,1,7.54,0l41.39,23.89A3.56,3.56,0,0,1,562.7,119.18Z" style="fill:#002635"/><path d="M169.28,328c4.38,2.53,4.41,6.62.07,9.14l-16.52,9.61c-4.35,2.52-11.41,2.51-15.79,0l-16.63-9.6c-4.36-2.52-4.39-6.61,0-9.14l16.52-9.6a17.39,17.39,0,0,1,15.77,0Z" style="fill:#0591ce"/><path d="M164.54,328.88c3.53,2,3.56,5.33.05,7.37L151.28,344a14,14,0,0,1-12.72,0l-13.4-7.74c-3.52-2-3.55-5.32,0-7.36l13.31-7.74a14,14,0,0,1,12.71,0Z" style="fill:#002635"/><path d="M231,377.33c2.42,1.4,2.44,3.66,0,5.06a9.65,9.65,0,0,1-8.74,0l-24.81-14.33c-2.42-1.39-2.44-3.66,0-5.06a9.62,9.62,0,0,1,8.74,0Z" style="fill:#002635"/><path d="M91.7,296.89c2.42,1.4,2.44,3.66,0,5.06A9.65,9.65,0,0,1,83,302L58.19,287.62c-2.42-1.4-2.44-3.66,0-5.06a9.65,9.65,0,0,1,8.74,0Z" style="fill:#002635"/><path d="M87,362.63a8.44,8.44,0,0,0,3.85,6.66l33.52,19.35c1.57.91,2.92.62,3.54-.57a3.53,3.53,0,0,0,.35-1.62,8.47,8.47,0,0,0-3.87-6.68L90.92,360.4a3.75,3.75,0,0,0-1.51-.51C88,359.77,87,360.78,87,362.63Z" style="fill:#3e6985"/><path d="M89.05,361.54a8.49,8.49,0,0,0,3.85,6.67l33.52,19.36a3.43,3.43,0,0,0,1.53.5,3.53,3.53,0,0,0,.35-1.62,8.47,8.47,0,0,0-3.87-6.68L90.92,360.4a3.75,3.75,0,0,0-1.51-.51A3.53,3.53,0,0,0,89.05,361.54Z" style="fill:#057ea8"/><path d="M142.34,394.23a3.78,3.78,0,0,1-.54,2.09c-.74,1.14-2.18,1.37-3.85.41a9.59,9.59,0,0,1-4.35-7.55c0-1.86.89-3,2.21-3.09a3.86,3.86,0,0,1,2.17.59A9.61,9.61,0,0,1,142.34,394.23Z" style="fill:#3e6985"/><path d="M142.34,394.23a3.78,3.78,0,0,1-.54,2.09,3.73,3.73,0,0,1-2.18-.59,9.6,9.6,0,0,1-4.36-7.55,3.7,3.7,0,0,1,.55-2.09,3.86,3.86,0,0,1,2.17.59A9.61,9.61,0,0,1,142.34,394.23Z" style="fill:#617c8c"/><polygon points="235.97 284.92 193.11 309.83 132.63 274.75 175.77 250.14 235.97 284.92" style="fill:#2f3154"/><polygon points="465.23 123.03 410.63 154.71 325.81 105.59 380.7 74.19 465.23 123.03" style="fill:#2f3154"/><polygon points="169.01 246.26 126.15 271.17 82.72 245.94 125.86 221.32 169.01 246.26" style="fill:#2f3154"/><polygon points="338.27 343.98 295.4 368.89 251.97 343.66 295.11 319.04 338.27 343.98" style="fill:#2f3154"/><polygon points="592.54 197.6 538.42 229.05 483.58 197.19 538.05 166.11 592.54 197.6" style="fill:#2f3154"/><polygon points="529.43 161.16 475.31 192.61 420.46 160.76 474.94 129.67 529.43 161.16" style="fill:#2f3154"/><polygon points="410.23 174.69 381.51 191.52 279.48 132.37 308.63 115.99 410.23 174.69" style="fill:#2f3154"/><polygon points="478.5 263.73 358.52 333.24 145.25 209.87 265.66 140.8 478.5 263.73" style="fill:#2f3154"/><polygon points="521.47 238.91 492.76 255.74 463.17 238.43 492.32 222.04 521.47 238.91" style="fill:#2f3154"/><polygon points="483.84 217.19 455.12 234.01 425.54 216.7 454.69 200.31 483.84 217.19" style="fill:#2f3154"/><polygon points="447.49 196.2 418.77 213.03 389.19 195.71 418.34 179.33 447.49 196.2" style="fill:#2f3154"/><polygon points="287.89 314.26 245.33 339.04 201.63 313.61 244.54 289.2 287.89 314.26" style="fill:#2f3154"/><polygon points="592.54 43.82 538.42 75.27 538.45 91.64 592.51 60.43 592.54 43.82" style="fill:#d64128"/><polygon points="592.54 43.82 538.42 75.27 483.58 43.41 538.05 12.33 592.54 43.82" style="fill:#f26b54"/><polygon points="483.58 43.41 538.42 75.27 538.45 91.64 483.61 60.02 483.58 43.41" style="fill:#e8533a"/><polygon points="592.54 43.82 538.42 75.27 538.45 91.64 592.51 60.43 592.54 43.82" style="mix-blend-mode:multiply;fill:url(#linear-gradient-2)"/><g style="isolation:isolate"><path d="M543.41,37.79c2.18,1.26,2.19,3.29,0,4.55a8.64,8.64,0,0,1-7.86,0c-2.17-1.26-2.19-3.29,0-4.55A8.64,8.64,0,0,1,543.41,37.79Z" style="fill:#fff"/><path d="M555.67,47c-3.31,2.54-8.14,4.15-13.6,4.52L520.47,53a4.43,4.43,0,0,1-2.43-.49,1.38,1.38,0,0,1-.85-1.4l2.49-12.52c.63-3.16,3.39-6,7.76-7.89a31.4,31.4,0,0,1,15.22-2.23,27.41,27.41,0,0,1,11.14,3.26c3,1.7,5,3.93,5.67,6.45C560.34,41.34,559,44.48,555.67,47Zm-14.31,1.14A18,18,0,0,0,551,45c2.34-1.79,3.3-4,2.69-6.23a8.08,8.08,0,0,0-4-4.56,19.34,19.34,0,0,0-7.88-2.3A22.16,22.16,0,0,0,531,33.43c-3.09,1.36-5,3.35-5.49,5.58l-2.06,10.37,17.89-1.23" style="fill:#fff"/></g><polygon points="464.72 48.98 410.6 80.43 410.63 96.8 464.69 65.59 464.72 48.98" style="fill:#1b9971"/><polygon points="464.72 48.98 410.6 80.43 325.81 31.08 380.29 0 464.72 48.98" style="fill:#60d4af"/><polygon points="325.81 31.08 410.6 80.43 410.63 96.8 325.85 47.69 325.81 31.08" style="fill:#36c295"/><polygon points="464.72 48.98 410.6 80.43 410.63 96.8 464.69 65.59 464.72 48.98" style="mix-blend-mode:multiply;fill:url(#linear-gradient-3)"/><path d="M398.81,36.84c4.63,2.67,6.46,6.6,4.8,10.25-.4.89-2,1.42-3.5,1.18a3.84,3.84,0,0,1-1.29-.43c-.7-.4-1-1-.75-1.6,1.14-2.52-.12-5.22-3.29-7.05a19.59,19.59,0,0,0-12.19-1.89,4.35,4.35,0,0,1-2.76-.43,1.78,1.78,0,0,1-.75-.74c-.41-.89.49-1.8,2-2C387.41,33.12,394.2,34.18,398.81,36.84Z" style="fill:#fff"/><path d="M388.32,42.94c2,1.13,2,3,0,4.1a7.78,7.78,0,0,1-7.09,0c-2-1.13-2-3,0-4.1A7.79,7.79,0,0,1,388.32,42.94Z" style="fill:#fff"/><path d="M409.16,30.83c7.37,4.26,10.31,10.53,7.65,16.36-.4.89-2,1.42-3.5,1.18a3.71,3.71,0,0,1-1.28-.43c-.7-.4-1-1-.76-1.6,2.14-4.7-.22-9.74-6.15-13.16s-14.64-4.78-22.74-3.52a4.43,4.43,0,0,1-2.77-.44,1.7,1.7,0,0,1-.74-.74c-.41-.88.49-1.79,2-2C391,24.9,401.79,26.58,409.16,30.83Z" style="fill:#fff"/><polygon points="287.89 236 245.33 260.77 245.36 277.13 287.86 252.6 287.89 236" style="fill:#de2a48"/><polygon points="287.89 236 245.33 260.77 201.63 235.34 244.54 210.94 287.89 236" style="fill:#ff617b"/><polygon points="201.63 235.34 245.33 260.77 245.36 277.13 201.66 251.95 201.63 235.34" style="fill:#de3551"/><polygon points="287.89 236 245.33 260.77 245.36 277.13 287.86 252.6 287.89 236" style="mix-blend-mode:multiply;fill:url(#linear-gradient-4)"/><path d="M262.9,237.18a1,1,0,0,1,0,1.93l-15,8.7a3.71,3.71,0,0,1-3.34,0l-23-13.29a1,1,0,0,1,0-1.93l15-8.69a3.65,3.65,0,0,1,3.34,0l5.43,3.13,2.66-1.61a3.67,3.67,0,0,1,3.37,0l8.82,5.08a1,1,0,0,1,0,1.94l-2.75,1.6Zm-16.64,7.73,11.64-6.76L252.42,235a1,1,0,0,1,0-1.93l2.76-1.6-5.43-3.13-2.65,1.61a3.37,3.37,0,0,1-1.68.43,3.59,3.59,0,0,1-1.7-.4l-5.48-3.17-11.63,6.77,19.66,11.35" style="fill:#fff"/><path d="M245.68,233.86c1.69,1,1.7,2.56,0,3.54a6.76,6.76,0,0,1-6.13,0c-1.69-1-1.7-2.56,0-3.54A6.76,6.76,0,0,1,245.68,233.86Z" style="fill:#fff"/><rect x="357.52" y="331.24" width="2" height="2" style="fill:#f9ff3d"/><path d="M359.52,327.19h-2v-4.05h2Zm0-8.11h-2V315h2Zm0-8.11h-2v-4.05h2Zm0-8.11h-2v-4.05h2Zm0-8.11h-2v-4.06h2Zm0-8.11h-2v-4.05h2Zm0-8.11h-2v-4h2Zm0-8.11h-2v-4.05h2Zm0-8.11h-2v-4.05h2Zm0-8.11h-2v-4h2Z" style="fill:#f9ff3d"/><rect x="357.52" y="244.09" width="2" height="2" style="fill:#f9ff3d"/><rect x="125.46" y="244.04" width="2" height="2" transform="translate(-120.04 368.62) rotate(-89.33)" style="fill:#f9ff3d"/><path d="M127.23,264.55l-2,0,0-4.63,2,0Zm.11-9.25-2,0,0-4.63,2,0Z" style="fill:#f9ff3d"/><rect x="125.16" y="269.17" width="2" height="2" transform="translate(-145.46 393.16) rotate(-89.33)" style="fill:#f9ff3d"/><rect x="81.77" y="218.85" width="2" height="2" transform="translate(-137.24 302.19) rotate(-89.89)" style="fill:#f9ff3d"/><path d="M83.73,239.32h-2V234.7h2Zm0-9.23h-2v-4.61h2Z" style="fill:#f9ff3d"/><rect x="81.72" y="243.94" width="2" height="2" transform="translate(-162.38 327.18) rotate(-89.89)" style="fill:#f9ff3d"/><rect x="167.96" y="219.5" width="2" height="2" transform="translate(-0.43 0.33) rotate(-0.11)" style="fill:#f9ff3d"/><path d="M168,239.71v-4.55h2v4.55Zm0-9.1v-4.55h2v4.55Z" style="fill:#f9ff3d"/><rect x="168.01" y="244.26" width="2" height="2" transform="translate(-0.48 0.33) rotate(-0.11)" style="fill:#f9ff3d"/><rect x="294.41" y="366.89" width="2" height="2" transform="translate(-73.05 662.58) rotate(-89.89)" style="fill:#f9ff3d"/><path d="M296.42,362.5h-2V358.1h2Zm0-8.79h-2v-4.4h2Zm0-8.78h-2v-4.39h2Zm0-8.79h-2v-4.4h2Z" style="fill:#f9ff3d"/><rect x="294.51" y="325.35" width="2" height="2" transform="translate(-31.42 621.23) rotate(-89.89)" style="fill:#f9ff3d"/><rect x="337.26" y="341.98" width="2" height="2" transform="translate(-2.17 2.16) rotate(-0.36)" style="fill:#f9ff3d"/><path d="M337.23,337.63l0-4.35h2l0,4.35Zm-.06-8.7,0-4.35h2l0,4.35Zm-.05-8.7,0-4.35h2l0,4.35Zm-.05-8.7,0-4.35h2l0,4.35Z" style="fill:#f9ff3d"/><rect x="337.01" y="300.82" width="2" height="2" transform="translate(-1.91 2.15) rotate(-0.36)" style="fill:#f9ff3d"/><rect x="250.97" y="341.66" width="2" height="2" transform="translate(-1.25 0.92) rotate(-0.21)" style="fill:#f9ff3d"/><path d="M251,337.27l0-4.38h2l0,4.39Zm0-8.77,0-4.39h2l0,4.39Zm0-8.78v-4.38h2v4.39Zm0-8.77v-4.39h2v4.39Z" style="fill:#f9ff3d"/><rect x="250.82" y="300.17" width="2" height="2" transform="translate(-1.11 0.93) rotate(-0.21)" style="fill:#f9ff3d"/><rect x="244.33" y="337.04" width="2" height="2" style="fill:#f9ff3d"/><path d="M246.33,333.18h-2v-3.86h2Zm0-7.72h-2v-3.86h2Zm0-7.72h-2v-3.86h2Zm0-7.72h-2v-3.86h2Zm0-7.72h-2v-3.86h2Zm0-7.72h-2v-3.86h2Zm0-7.72h-2V283h2Z" style="fill:#f9ff3d"/><rect x="244.36" y="277.13" width="2" height="2" style="fill:#f9ff3d"/><rect x="200.66" y="251.95" width="2" height="2" style="fill:#f9ff3d"/><path d="M202.64,307.77h-2v-3.85h2Zm0-7.69h-2v-3.85h2Zm0-7.69h-2v-3.84h2Zm0-7.69h-2v-3.84h2Zm0-7.68h-2v-3.84h2Zm0-7.69h-2v-3.85h2Zm0-7.69h-2v-3.85h2Z" style="fill:#f9ff3d"/><rect x="200.63" y="311.61" width="2" height="2" style="fill:#f9ff3d"/><rect x="286.89" y="312.26" width="2" height="2" style="fill:#f9ff3d"/><path d="M286.88,308.42v-3.84h2v3.85Zm0-7.69v-3.84h2v3.84Zm0-7.69V289.2h2V293Zm0-7.68v-3.85h2v3.84Zm0-7.69v-3.85h2v3.85Zm0-7.69v-3.84h2V270Zm0-7.69v-3.84h2v3.84Z" style="fill:#f9ff3d"/><rect x="286.86" y="252.6" width="2" height="2" style="fill:#f9ff3d"/><polygon points="338.04 284.21 295.48 308.99 295.51 325.35 338 300.82 338.04 284.21" style="fill:#f29b06"/><polygon points="338.04 284.21 295.48 308.99 251.78 283.56 294.69 259.16 338.04 284.21" style="fill:#ffd006"/><polygon points="251.78 283.56 295.48 308.99 295.51 325.35 251.81 300.17 251.78 283.56" style="fill:#ffb406"/><polygon points="338.04 284.21 295.48 308.99 295.51 325.35 338 300.82 338.04 284.21" style="mix-blend-mode:multiply;fill:url(#linear-gradient-5)"/><path d="M316.59,285.13c.78.45.79,1.18,0,1.63l-15.5,9a3.11,3.11,0,0,1-2.82,0L274.43,282a.87.87,0,0,1,0-1.64l15.5-9a3.11,3.11,0,0,1,2.82,0Zm-7.54,2.74,3.31-1.92-21-12.14-3.3,1.93,1.29,11.42,19.72.71m-9.37,5.44,6.24-3.63-13.36-.48,7.12,4.11m-21-12.13,7.12,4.11-.87-7.74-6.25,3.63" style="fill:#fff"/><rect x="144.28" y="137.44" width="2" height="2" style="fill:#f9ff3d"/><path d="M146.25,203.85h-2v-4h2Zm0-8h-2v-4h2Zm0-8.05h-2v-4h2Zm0-8.05h-2v-4h2Zm0-8.06h-2v-4h2Zm0-8h-2v-4h2Zm0-8.05h-2v-4h2Zm0-8h-2v-4h2Z" style="fill:#f9ff3d"/><rect x="144.25" y="207.87" width="2" height="2" style="fill:#f9ff3d"/><polygon points="168.99 202.9 126.44 227.67 126.47 244.04 168.96 219.5 168.99 202.9" style="fill:#329fba"/><polygon points="168.99 202.9 126.44 227.67 82.74 202.24 125.65 177.84 168.99 202.9" style="fill:#5bcacc"/><polygon points="82.74 202.24 126.44 227.67 126.47 244.04 82.77 218.85 82.74 202.24" style="fill:#45bacc"/><polygon points="168.99 202.9 126.44 227.67 126.47 244.04 168.96 219.5 168.99 202.9" style="mix-blend-mode:multiply;fill:url(#linear-gradient-6)"/><g style="isolation:isolate"><path d="M128.37,199.87a1,1,0,0,1,0,1.89,3.56,3.56,0,0,1-3.27,0,1,1,0,0,1,0-1.89A3.62,3.62,0,0,1,128.37,199.87Z" style="fill:#fff"/><path d="M146.66,201.92a1,1,0,0,1,0,1.87l-15.29,8.88a3.54,3.54,0,0,1-3.23,0l-2.45-1.42L122.76,213a3.61,3.61,0,0,1-2.41.3,2.92,2.92,0,0,1-.82-.3,1.24,1.24,0,0,1-.67-.85l-.64-5.19L106.28,200a1,1,0,0,1,0-1.87l15.29-8.88a3.54,3.54,0,0,1,3.23,0Zm-16.9,8,12.07-7-18.65-10.77-12.07,7L122,205.41a1.17,1.17,0,0,1,.67.84l.34,2.79,1-.59a3.54,3.54,0,0,1,3.23,0l2.45,1.42" style="fill:#fff"/><path d="M123.81,197.24a1,1,0,0,1,0,1.89,3.56,3.56,0,0,1-3.27,0,1,1,0,0,1,0-1.89A3.62,3.62,0,0,1,123.81,197.24Z" style="fill:#fff"/><path d="M132.92,202.5a1,1,0,0,1,0,1.89,3.56,3.56,0,0,1-3.27,0,1,1,0,0,1,0-1.89A3.62,3.62,0,0,1,132.92,202.5Z" style="fill:#fff"/></g><rect x="537.45" y="91.64" width="2" height="2" style="fill:#f9ff3d"/><path d="M539.42,223h-2v-4h2Zm0-8.09h-2v-4h2Zm0-8.08h-2v-4.05h2Zm0-8.09h-2v-4h2Zm0-8.08h-2v-4h2Zm0-8.09h-2v-4h2Zm0-8.09h-2v-4h2Zm0-8.08h-2v-4h2Zm0-8.09h-2v-4h2Zm0-8.08h-2v-4.05h2Zm0-8.09h-2v-4h2Zm0-8.08h-2v-4h2Zm0-8.09h-2v-4h2Zm0-8.08h-2v-4.05h2Zm0-8.09h-2v-4h2Zm0-8.09h-2v-4h2Z" style="fill:#f9ff3d"/><rect x="537.42" y="227.05" width="2" height="2" style="fill:#f9ff3d"/><rect x="591.54" y="195.6" width="2" height="2" style="fill:#f9ff3d"/><path d="M591.54,191.57v-4h2v4Zm0-8.07v-4h2v4Zm0-8.08v-4h2v4Zm0-8.07v-4h2v4Zm0-8.07v-4h2v4Zm0-8.07v-4h2v4Zm0-8.07v-4h2v4Zm0-8.07v-4h2v4Zm0-8.07v-4h2v4Zm0-8.07v-4h2v4Zm0-8.07v-4h2v4Zm0-8.07v-4h2v4Zm0-8.08v-4h2v4Zm0-8.07v-4h2v4Zm0-8.07v-4h2v4Zm0-8.07v-4h2v4Z" style="fill:#f9ff3d"/><rect x="591.51" y="60.43" width="2" height="2" style="fill:#f9ff3d"/><rect x="474.34" y="161.75" width="2" height="2" style="fill:#f9ff3d"/><path d="M476.31,186.78h-2v-3.84h2Zm0-7.68h-2v-3.84h2Zm0-7.68h-2v-3.84h2Z" style="fill:#f9ff3d"/><rect x="474.31" y="190.61" width="2" height="2" style="fill:#f9ff3d"/><rect x="528.4" y="130.54" width="2" height="2" transform="translate(-0.19 0.77) rotate(-0.08)" style="fill:#f9ff3d"/><path d="M528.42,155.36v-3.8h2v3.8Zm0-7.6V144h2v3.8Zm0-7.61v-3.81h2v3.8Z" style="fill:#f9ff3d"/><rect x="528.43" y="159.16" width="2" height="2" style="fill:#f9ff3d"/><rect x="419.5" y="130.13" width="2" height="2" style="fill:#f9ff3d"/><path d="M421.47,155h-2v-3.8h2Zm0-7.6h-2v-3.8h2Zm0-7.61h-2v-3.81h2Z" style="fill:#f9ff3d"/><rect x="419.47" y="158.76" width="2" height="2" transform="translate(260.1 579.99) rotate(-89.92)" style="fill:#f9ff3d"/><rect x="409.63" y="96.8" width="2" height="2" style="fill:#f9ff3d"/><path d="M411.63,148.57h-2v-4.15h2Zm0-8.3h-2v-4.15h2Zm0-8.29h-2v-4.15h2Zm0-8.3h-2v-4.14h2Zm0-8.29h-2v-4.15h2Zm0-8.3h-2V103h2Z" style="fill:#f9ff3d"/><rect x="409.63" y="152.71" width="2" height="2" style="fill:#f9ff3d"/><rect x="463.7" y="65.59" width="2" height="2" transform="matrix(1, -0.01, 0.01, 1, -0.6, 4.3)" style="fill:#f9ff3d"/><path d="M464.18,116.92l0-4.11h2l0,4.11Zm-.08-8.22,0-4.11,2,0,0,4.12Zm-.08-8.22,0-4.11,2,0,0,4.12Zm-.08-8.22,0-4.11,2,0,0,4.11ZM463.86,84l0-4.11,2,0,0,4.11Zm-.08-8.22,0-4.11,2,0,0,4.11Z" style="fill:#f9ff3d"/><rect x="464.22" y="121.03" width="2" height="2" transform="translate(-1.11 4.31) rotate(-0.53)" style="fill:#f9ff3d"/><rect x="324.84" y="47.69" width="2" height="2" style="fill:#f9ff3d"/><path d="M326.82,99.44h-2V95.3h2Zm0-8.29h-2V87h2Zm0-8.29h-2V78.71h2Zm0-8.29h-2V70.42h2Zm0-8.29h-2V62.13h2Zm0-8.3h-2V53.84h2Z" style="fill:#f9ff3d"/><rect x="324.81" y="103.59" width="2" height="2" style="fill:#f9ff3d"/><rect x="491.72" y="242.17" width="2" height="2" transform="translate(-0.6 1.21) rotate(-0.14)" style="fill:#f9ff3d"/><rect x="491.74" y="247.36" width="2" height="3.19" transform="translate(-0.68 1.36) rotate(-0.16)" style="fill:#f9ff3d"/><rect x="491.75" y="253.74" width="2" height="2" transform="translate(-0.74 1.43) rotate(-0.17)" style="fill:#f9ff3d"/><rect x="520.44" y="225.32" width="2" height="2" transform="translate(-0.54 1.25) rotate(-0.14)" style="fill:#f9ff3d"/><rect x="520.46" y="230.52" width="2" height="3.2" transform="translate(-0.56 1.27) rotate(-0.14)" style="fill:#f9ff3d"/><rect x="520.47" y="236.92" width="2" height="2" transform="matrix(1, 0, 0, 1, -0.58, 1.28)" style="fill:#f9ff3d"/><rect x="462.2" y="224.78" width="2" height="2" transform="translate(236.29 688.43) rotate(-89.86)" style="fill:#f9ff3d"/><rect x="461.58" y="230.6" width="3.22" height="2" transform="translate(230.69 694.34) rotate(-89.89)" style="fill:#f9ff3d"/><rect x="462.18" y="236.43" width="2" height="2" transform="translate(224.64 700.03) rotate(-89.86)" style="fill:#f9ff3d"/><polygon points="478.5 174.29 358.46 244.09 358.5 260.46 478.47 190.9 478.5 174.29" style="fill:#3382e0"/><polygon points="478.5 174.29 358.46 244.09 145.25 120.83 265.63 51.4 478.5 174.29" style="fill:#60bcf5"/><polygon points="145.25 120.83 358.5 244.09 358.5 260.46 145.28 137.44 145.25 120.83" style="fill:#35a4e8"/><polygon points="478.5 174.29 358.5 244.09 358.5 260.46 478.5 190.9 478.5 174.29" style="mix-blend-mode:multiply;fill:url(#linear-gradient-7)"/><path d="M301.69,87.56a1.24,1.24,0,0,1,0,2.35l-9.43,5.48a4.47,4.47,0,0,1-4.06,0,1.24,1.24,0,0,1,0-2.35l9.43-5.48A4.51,4.51,0,0,1,301.69,87.56Z" style="fill:#fff"/><path d="M245.45,100.31c.71.41,1,1,.76,1.6-.41.89-2,1.42-3.5,1.18l-12.93-2a3.69,3.69,0,0,1-1.29-.42c-.71-.41-1-1-.75-1.61.4-.88,2-1.41,3.5-1.17l12.93,2A3.71,3.71,0,0,1,245.45,100.31Z" style="fill:#fff"/><path d="M279.86,120.18a1.78,1.78,0,0,1,.75.74l3.5,7.49c.42.88-.48,1.79-2,2a4.48,4.48,0,0,1-2.78-.43,1.69,1.69,0,0,1-.73-.75l-3.51-7.48c-.42-.88.48-1.79,2-2A4.35,4.35,0,0,1,279.86,120.18Z" style="fill:#fff"/><path d="M284.32,97.66c7.66,4.42,7.7,11.62.09,16s-20.05,4.42-27.71,0-7.71-11.62-.09-16S276.65,93.23,284.32,97.66Zm-23.58,13.7c5.42,3.13,14.21,3.13,19.61,0s5.35-8.22-.07-11.35-14.22-3.13-19.6,0-5.36,8.22.06,11.35" style="fill:#fff"/><path d="M261.69,81.36a1.78,1.78,0,0,1,.75.74l3.5,7.49c.41.88-.49,1.79-2,2a4.38,4.38,0,0,1-2.77-.43,1.72,1.72,0,0,1-.74-.75L256.9,83c-.41-.88.49-1.79,2-2A4.38,4.38,0,0,1,261.69,81.36Z" style="fill:#fff"/><path d="M252.79,116a1.24,1.24,0,0,1,0,2.35l-9.43,5.48a4.53,4.53,0,0,1-4.06,0,1.24,1.24,0,0,1,0-2.35l9.43-5.48A4.45,4.45,0,0,1,252.79,116Z" style="fill:#fff"/><path d="M312.53,110.71c.7.41,1,1,.75,1.61-.41.88-2,1.41-3.5,1.17l-12.93-2a3.69,3.69,0,0,1-1.29-.43c-.7-.41-1-1-.75-1.61.4-.88,2-1.41,3.5-1.17l12.94,2A3.71,3.71,0,0,1,312.53,110.71Z" style="fill:#fff"/><polygon points="391.16 225.08 390.76 225.32 177.67 102.13 177.93 101.96 391.16 225.08" style="fill:#fff"/><polygon points="388.95 191.5 378.17 194.19 372.95 197.22 372.54 196.98 377.76 193.95 382.43 187.73 382.84 187.97 378.54 193.75 388.52 191.25 388.95 191.5" style="fill:#fff"/><polygon points="374 182.87 361.09 190.37 360.58 190.08 368.27 180.24 355.94 187.4 355.55 187.17 368.46 179.67 369.04 180 361.53 189.66 373.61 182.64 374 182.87" style="fill:#fff"/><polygon points="381.02 186.92 368.11 194.42 367.6 194.13 375.29 184.29 362.96 191.45 362.57 191.23 375.49 183.72 376.06 184.05 368.54 193.72 380.63 186.69 381.02 186.92" style="fill:#fff"/><polygon points="427.08 169.18 425.06 170.35 383.83 183.26 381.56 181.95 422.74 169.07 410.3 161.88 412.37 160.68 427.08 169.18" style="fill:#fff"/><path d="M367,178.82l-9.72,5.65a5.89,5.89,0,0,1-6,.37c-2-1.15-1.18-2.44.59-3.47l9.72-5.65.41.24-9.74,5.66c-1.55.9-2.34,2-.62,3a5.09,5.09,0,0,0,5.19-.36l9.74-5.66Z" style="fill:#fff"/><path d="M401.81,154.31c5.28,3,3.65,6.34-1.25,9.19-9.72,5.65-25.33.53-35.39,6.21l-.38.22,12.1,7-2,1.17-14.33-8.27,1.64-.95c11.88-6.9,26.82-1.23,36.05-6.59,3.9-2.27,5.33-4.62,1.46-6.85s-8-1.26-11.57.83l-2.31,1.35-2.13-1.23,2.16-1.26C390.7,152.29,396.58,151.29,401.81,154.31Z" style="fill:#fff"/><path d="M438,172.1c1.88,1.1,1.89,2.87,0,4a7.53,7.53,0,0,1-6.84,0c-1.89-1.09-1.91-2.86,0-4A7.56,7.56,0,0,1,438,172.1Zm-5.33,3.1a4.27,4.27,0,0,0,3.86,0,1.18,1.18,0,0,0,0-2.23,4.24,4.24,0,0,0-3.86,0c-1.06.61-1.05,1.61,0,2.23" style="fill:#fff"/><path d="M357.58,173.28c2,1.13,1.26,2.39-.51,3.42l-.24.14-.41-.24.26-.15c1.53-.89,2.25-2,.55-2.95a5,5,0,0,0-5.08.31c-3.31,1.92,1.76,4.74-1.74,6.78a5.78,5.78,0,0,1-5.94.29c-2-1.13-1.3-2.39.49-3.43l.63-.37.39.23-.65.38c-1.57.91-2.19,2-.48,3a5,5,0,0,0,5.13-.29c3.26-1.9-1.82-4.71,1.74-6.78A5.68,5.68,0,0,1,357.58,173.28Z" style="fill:#fff"/><polygon points="529.43 113.93 475.31 145.38 475.34 161.75 529.39 130.54 529.43 113.93" style="fill:#f29b06"/><polygon points="529.43 113.93 475.31 145.38 420.46 113.52 474.94 82.44 529.43 113.93" style="fill:#fdd206"/><polygon points="420.46 113.52 475.31 145.38 475.34 161.75 420.5 130.13 420.46 113.52" style="fill:#ffb406"/><polygon points="529.43 113.93 475.31 145.38 475.34 161.75 529.39 130.54 529.43 113.93" style="mix-blend-mode:multiply;fill:url(#linear-gradient-8)"/><path d="M492.2,102.46c9.59,5.53,9.64,14.53.12,20.07s-25.05,5.53-34.64,0-9.63-14.53-.11-20.06S482.63,96.93,492.2,102.46ZM461.69,120.2c7.36,4.25,19.29,4.25,26.6,0s7.27-11.16-.09-15.41-19.29-4.25-26.6,0-7.27,11.16.09,15.41" style="fill:#fff"/><path d="M477.91,106.81a1.15,1.15,0,0,1,.53.54l3.54,7.77c.41.88-1,1.67-2.49,1.44l-13.43-2a2.49,2.49,0,0,1-.92-.31c-.77-.43-.87-1.19,0-1.68L475,106.8A3.19,3.19,0,0,1,477.91,106.81Z" style="fill:#fff"/><rect x="482.61" y="60.02" width="2" height="2" style="fill:#f9ff3d"/><path d="M484.58,191.16h-2v-4h2Zm0-8.07h-2v-4h2Zm0-8.07h-2v-4h2Zm0-8.08h-2v-4h2Zm0-8.07h-2v-4h2Zm0-8.07h-2v-4h2Zm0-8.07h-2v-4h2Zm0-8.07h-2v-4h2Zm0-8.07h-2v-4h2Zm0-8.07h-2v-4h2Zm0-8.07h-2v-4h2Zm0-8.07h-2v-4h2Zm0-8.07h-2v-4h2Zm0-8.08h-2v-4h2Zm0-8.07h-2v-4h2Zm0-8.07h-2v-4h2Z" style="fill:#f9ff3d"/><rect x="482.58" y="195.19" width="2" height="2" style="fill:#f9ff3d"/><polygon points="521.47 208.71 492.68 225.8 492.72 242.17 521.44 225.32 521.47 208.71" style="fill:#1b9971"/><polygon points="521.47 208.71 492.68 225.8 463.17 208.17 492.32 191.45 521.47 208.71" style="fill:#60d4af"/><polygon points="463.17 208.17 492.68 225.8 492.72 242.17 463.21 224.78 463.17 208.17" style="fill:#36c295"/><polygon points="521.47 208.71 492.68 225.8 492.72 242.17 521.44 225.32 521.47 208.71" style="mix-blend-mode:multiply;fill:url(#linear-gradient-9)"/><path d="M494.14,207.39a1.11,1.11,0,0,1,0,2.11,4,4,0,0,1-3.64,0c-1-.59-1-1.53,0-2.11A4,4,0,0,1,494.14,207.39Z" style="fill:#fff"/><path d="M498.79,215.17c.08.38-.34.73-1,.83l-3.63.57a2.13,2.13,0,0,1-1.3-.2.91.91,0,0,1-.27-.24l-1.38-1.76a17.16,17.16,0,0,1-3-.46L485.52,215a2.1,2.1,0,0,1-1.74-.08l-2.67-1.54c-.47-.27-.53-.69-.15-1l2-1.56a4.24,4.24,0,0,1-.82-1.75l-3-.79a1.45,1.45,0,0,1-.4-.16c-.33-.19-.48-.47-.35-.75l1-2.1a1.5,1.5,0,0,1,1.43-.58l3.32.2a8.16,8.16,0,0,1,1-.69,10.15,10.15,0,0,1,1.19-.59l-.35-1.92c-.07-.38.35-.73,1-.83l3.64-.57a2.06,2.06,0,0,1,1.3.21.91.91,0,0,1,.28.23l1.37,1.76a17.16,17.16,0,0,1,3,.47l2.69-1.13a2.11,2.11,0,0,1,1.74.08l2.67,1.54c.46.27.53.69.14,1L501.74,206a4.1,4.1,0,0,1,.81,1.75l3.06.79a1.59,1.59,0,0,1,.4.16c.33.19.48.48.36.75l-1,2.1a1.5,1.5,0,0,1-1.43.58l-3.32-.2a8.28,8.28,0,0,1-1,.69,10.82,10.82,0,0,1-1.18.59Zm-4.21-.28,1.42-.22-.31-1.73c-.06-.29.19-.59.63-.74a7.94,7.94,0,0,0,1.4-.64,6.13,6.13,0,0,0,1.11-.82,1.78,1.78,0,0,1,1.28-.37l3,.18.38-.82-2.74-.71a1.85,1.85,0,0,1-.4-.16.7.7,0,0,1-.4-.53,3.22,3.22,0,0,0-.93-2,.52.52,0,0,1,.09-.82l1.74-1.41-1-.6-2.42,1a2.25,2.25,0,0,1-1.43,0,12,12,0,0,0-3.44-.53,2,2,0,0,1-.92-.23,1.11,1.11,0,0,1-.28-.23L490.07,202l-1.42.22.31,1.73c.06.3-.19.59-.63.74a8.4,8.4,0,0,0-1.41.65,5.89,5.89,0,0,0-1.1.81,1.74,1.74,0,0,1-1.28.37l-3-.18-.38.82,2.74.71a1.85,1.85,0,0,1,.4.16.7.7,0,0,1,.4.54,3.16,3.16,0,0,0,.93,2,.53.53,0,0,1-.09.83l-1.74,1.4,1,.6,2.42-1a2.12,2.12,0,0,1,1.43-.05,12.58,12.58,0,0,0,3.44.53,1.87,1.87,0,0,1,.92.23.81.81,0,0,1,.28.23l1.23,1.58" style="fill:#fff"/><rect x="477.47" y="190.9" width="2" height="2" style="fill:#f9ff3d"/><path d="M477.5,257.68v-4.05h2v4.05Zm0-8.1v-4.05h2v4.05Zm0-8.1v-4h2v4Zm0-8.09v-4h2v4Zm0-8.1v-4h2v4Zm0-8.1v-4.05h2v4.05Zm0-8.1V205h2v4.05Zm0-8.09V197h2V201Z" style="fill:#f9ff3d"/><rect x="477.5" y="261.73" width="2" height="2" style="fill:#f9ff3d"/></g></g></g></svg>